<svg fill="none" xmlns="http://www.w3.org/2000/svg" viewBox="0 0 145 130" aria-hidden="true" role="img"><g clip-path="url(#clip0_11533_51476)"><path d="M.917 109.248h143.166c.524 0 .917.393.917.917a.895.895 0 01-.917.917H.917a.895.895 0 01-.917-.917c0-.393.393-.917.917-.917z" fill="url(#paint0_linear_11533_51476-uid-3)"/><path d="M113.958 38.125l-.786-4.715c-.393-2.096-2.096-3.537-4.192-3.537H80.95c-2.096 0-3.93 1.572-4.192 3.537l-.786 4.715c-.393 2.096-2.096 3.537-4.191 3.537H27.639c-2.358 0-4.323 1.964-4.323 4.322v65.361h104.395V45.853c0-2.358-1.965-4.322-4.322-4.322h-5.371c-1.964.13-3.667-1.31-4.06-3.406z" fill="url(#paint1_linear_11533_51476-uid-3)"/><path d="M112.647 38.125l-.786-4.715c-.393-2.096-2.095-3.537-4.191-3.537H79.64c-2.097 0-3.93 1.572-4.192 3.537l-.786 4.715c-.393 2.096-2.096 3.537-4.192 3.537H26.328c-2.357 0-4.322 1.964-4.322 4.322v65.361H126.4V45.853c0-2.358-1.965-4.322-4.323-4.322h-5.37c-1.965.13-3.799-1.31-4.061-3.406z" fill="url(#paint2_linear_11533_51476-uid-3)"/><path d="M116.97 57.903c-.524-2.881-3.144-4.977-6.025-4.977H14.54c-1.44 0-2.882.524-3.93 1.44l-.13.132-1.18 1.047h.263c-.917 1.31-1.441 3.013-1.048 4.716l10.217 50.953H127.71l-10.741-53.31z" fill="url(#paint3_linear_11533_51476-uid-3)"/><path d="M109.897 53.975H13.361c-3.93 0-6.811 3.536-6.025 7.335l10.086 49.905H126.4l-10.479-52.394c-.655-2.882-3.144-4.846-6.025-4.846z" fill="#14A800"/><path d="M48.595 30.265l-.524-10.348c0-.524.393-.917.786-.917.524 0 .917.393.917.786v.13l-.524 10.349c0 .13-.131.262-.393.262a.282.282 0 01-.262-.262zm8.776 3.798c.13.131.262.131.393 0l7.728-6.942.13-.13a1.008 1.008 0 00-.13-1.31 1.008 1.008 0 00-1.31.13L57.24 33.54c0 .131 0 .393.13.524zm-17.028 0c.13-.13.13-.262 0-.393l-6.811-7.728-.131-.13a1.007 1.007 0 00-1.31.13c-.262.393-.262.917.13 1.31l7.729 6.942c.13 0 .262 0 .393-.13z" fill="#1F57C3"/></g><defs><linearGradient id="paint0_linear_11533_51476-uid-3" x1="-.027" y1="110.276" x2="145.092" y2="110.276" gradientUnits="userSpaceOnUse"><stop stop-color="#C3D2C3" stop-opacity="0"/><stop offset=".309" stop-color="#C3D2C3"/><stop offset=".374" stop-color="#C3D2C3"/><stop offset=".75" stop-color="#C3D2C3"/><stop offset="1" stop-color="#C3D2C3" stop-opacity=".014"/></linearGradient><linearGradient id="paint1_linear_11533_51476-uid-3" x1="75.541" y1="111.243" x2="75.541" y2="29.836" gradientUnits="userSpaceOnUse"><stop stop-color="#126B00"/><stop offset=".235" stop-color="#127000"/><stop offset=".52" stop-color="#137F00"/><stop offset=".831" stop-color="#139700"/><stop offset="1" stop-color="#14A800"/></linearGradient><linearGradient id="paint2_linear_11533_51476-uid-3" x1="74.219" y1="111.243" x2="74.219" y2="29.836" gradientUnits="userSpaceOnUse"><stop stop-color="#126B00"/><stop offset=".282" stop-color="#137D00"/><stop offset="1" stop-color="#14A800"/></linearGradient><linearGradient id="paint3_linear_11533_51476-uid-3" x1="77.317" y1="107.707" x2="54.947" y2="52.572" gradientUnits="userSpaceOnUse"><stop stop-color="#126B00"/><stop offset=".172" stop-color="#137C00"/><stop offset=".48" stop-color="#139400"/><stop offset=".765" stop-color="#14A300"/><stop offset="1" stop-color="#14A800"/></linearGradient><clipPath id="clip0_11533_51476-uid-3"><rect width="145" height="130" fill="#fff"/></clipPath></defs></svg>